<?xml version="1.0" standalone="no"?>
<!DOCTYPE svg PUBLIC "-//W3C//DTD SVG 20010904//EN"
 "http://www.w3.org/TR/2001/REC-SVG-20010904/DTD/svg10.dtd">
<svg version="1.0" xmlns="http://www.w3.org/2000/svg"
 width="517.000000pt" height="517.000000pt" viewBox="0 0 517.000000 517.000000"
 preserveAspectRatio="xMidYMid meet">
<metadata>
Created by potrace 1.11, written by Peter Selinger 2001-2013
</metadata>
<g transform="translate(0.000000,517.000000) scale(0.100000,-0.100000)"
fill="#000000" stroke="none">
<path d="M2390 5164 c-372 -44 -601 -102 -861 -219 -292 -132 -536 -301 -769
-535 -288 -287 -490 -608 -619 -982 -97 -284 -135 -521 -135 -843 0 -322 38
-559 135 -843 129 -374 331 -695 619 -982 345 -346 739 -569 1210 -685 218
-53 364 -70 615 -70 251 0 397 17 615 70 471 117 865 339 1210 685 349 348
575 751 688 1225 52 219 66 343 66 600 0 257 -14 381 -66 600 -88 372 -255
713 -495 1015 -86 109 -294 317 -403 403 -361 287 -778 469 -1235 538 -124 19
-486 34 -575 23z m1065 -575 c137 -25 282 -102 376 -200 203 -211 198 -574
-12 -803 -107 -117 -242 -191 -396 -216 l-73 -12 0 -256 0 -257 73 -65 c41
-36 130 -114 199 -175 70 -60 127 -114 127 -120 1 -5 -89 -90 -199 -189 l-200
-179 0 -373 0 -373 28 12 c283 127 514 360 638 644 50 116 58 109 51 -43 -13
-250 -67 -465 -171 -675 -123 -246 -333 -458 -575 -579 -88 -44 -278 -106
-386 -126 -119 -22 -423 -30 -553 -15 -504 59 -958 335 -1210 736 -91 146
-168 353 -197 530 -20 120 -19 367 0 481 97 551 579 1018 1240 1199 50 14 93
21 98 16 5 -5 -17 -23 -50 -41 -198 -112 -372 -296 -467 -495 -58 -121 -59
-120 21 -84 37 17 129 58 203 91 74 33 140 65 146 70 7 5 20 10 30 13 11 2
140 58 288 124 148 67 273 121 278 121 4 0 8 -352 8 -783 l0 -783 -350 -154
c-404 -178 -382 -152 -205 -239 183 -91 384 -128 640 -118 149 6 290 29 399
65 l51 17 2 380 2 380 -185 165 c-102 91 -194 174 -205 186 l-19 21 205 178
205 179 0 258 0 258 -52 0 c-74 0 -227 24 -350 55 -123 31 -236 65 -628 190
-299 95 -554 139 -671 116 -115 -23 -184 -72 -230 -167 -29 -58 -31 -71 -27
-132 6 -77 25 -121 76 -174 20 -21 33 -40 29 -44 -10 -10 -98 24 -167 64 -73
43 -148 115 -184 177 -14 23 -35 78 -47 120 -28 104 -24 267 10 365 85 247
311 438 583 494 97 20 263 20 393 1 142 -22 285 -62 571 -160 352 -122 460
-148 604 -149 100 -1 120 2 156 21 92 49 142 145 125 238 -23 124 -122 185
-298 185 -63 0 -84 3 -81 13 3 6 18 15 34 18 49 11 237 10 299 -2z"/>
<path d="M1897 2925 c-87 -38 -163 -77 -167 -86 -5 -8 -18 -60 -30 -115 -30
-140 -38 -440 -16 -576 41 -251 137 -441 297 -593 l74 -69 3 383 c1 210 1 550
0 755 l-3 372 -158 -71z"/>
</g>
</svg>
